{"title":"Pokemon - Movie 18 - Hoopa And The Clash Of Ages 1080p-BD (DUB)","uid":13422466,"size":6566561744,"categoryP":"video","categoryS":"movies","magnet":"?xt=urn:btih:51f6783c927aa2bd9b270068a8659c36dc95725d&amp;dn=Pokemon+-+Movie+18+-+Hoopa+And+The+Clash+Of+Ages+1080p-BD+%28DUB%29&amp;tr=udp%3A%2F%2Ftracker.leechers-paradise.org%3A6969&amp;tr=udp%3A%2F%2Fzer0day.ch%3A1337&amp;tr=udp%3A%2F%2Fopen.demonii.com%3A1337&amp;tr=udp%3A%2F%2Ftracker.coppersurfer.tk%3A6969&amp;tr=udp%3A%2F%2Fexodus.desync.com%3A6969","seeders":4,"leechers":3,"uploader":"ChoeyXD","files":1,"time":1454560550,"description":"Basically Dub from Arian WEBRip audio over Japanese Blu-ray by MM.\r\n\r\nFor more pictures and more info go here \nhttp://kametsu.com/index.php?/topic/53223-choeyxd-pokemon-movie-18-hoopa-and-the-clash-of-ages-1080p-bd/\r\n\r\n\r\nMediainfo\r\nFormat                                   : Matroska\r\nFormat version                           : Version 4 / Version 2\r\nFile size                                : 6.12 GiB\r\nDuration                                 : 1h 18mn\r\nOverall bit rate                         : 11.2 Mbps\r\nEncoded date                             : UTC 2016-02-04 02:31:33\r\nWriting application                      : mkvmerge v6.9.1 ('Blue Panther') 64bit built on Apr 18 2014 18:23:38\r\nWriting library                          : libebml v1.3.0 + libmatroska v1.4.1\r\n\r\nVideo\r\nID                                       : 1\r\nFormat                                   : AVC\r\nFormat/Info                              : Advanced Video Codec\r\nFormat profile                           :   \r\nFormat settings, CABAC                   : Yes\r\nFormat settings, ReFrames                : 8 frames\r\nCodec ID                                 : V_MPEG4/ISO/AVC\r\nDuration                                 : 1h 18mn\r\nBit rate                                 : 10.6 Mbps\r\nWidth                                    : 1 920 pixels\r\nHeight                                   : 1 080 pixels\r\nDisplay aspect ratio                     : 16:9\r\nFrame rate mode                          : Constant\r\nFrame rate                               : 23.976 (24000/1001) fps\r\nColor space                              : YUV\r\nChroma subsampling                       : 4:2:0\r\nBit depth                                : 8 bits\r\nScan type                                : Progressive\r\nBits/(Pixel*Frame)                       : 0.212\r\nStream size                              : 5.78 GiB (95%)\r\nWriting library                          : x264 core 148 r2597kMod e86f3a1\r\nEncoding settings                        : cabac=1 / ref=8 / deblock=1:-1:-2 / analyse=0x3:0x113 / me=umh / subme=10 / psy=1 / fade_compensate=0.00 / psy_rd=0.70:0.10 / mixed_ref=1 / me_range=32 / chroma_me=1 / trellis=2 / 8x8dct=1 / cqm=0 / deadzone=21,11 / fast_pskip=1 / chroma_qp_offset=-3 / threads=12 / lookahead_threads=1 / sliced_threads=0 / nr=0 / decimate=1 / interlaced=0 / bluray_compat=0 / constrained_intra=0 / fgo=0 / bframes=16 / b_pyramid=2 / b_adapt=1 / b_bias=0 / direct=1 / weightb=1 / open_gop=0 / weightp=2 / keyint=240 / keyint_min=23 / scenecut=40 / intra_refresh=0 / rc_lookahead=50 / rc=crf / mbtree=1 / crf=16.0000 / qcomp=0.60 / qpmin=0 / qpmax=69 / qpstep=4 / ip_ratio=1.40 / aq=2:0.80\r\nLanguage                                 : Japanese\r\nDefault                                  : Yes\r\nForced                                   : No\r\n\r\nAudio\r\nID                                       : 2\r\nFormat                                   : AC-3\r\nFormat/Info                              : Audio Coding 3\r\nMode extension                           : CM (complete main)\r\nFormat settings, Endianness              : Big\r\nCodec ID                                 : A_AC3\r\nDuration                                 : 1h 18mn\r\nBit rate mode                            : Constant\r\nBit rate                                 : 384 Kbps\r\nChannel(s)                               : 6 channels\r\nChannel positions                        : Front: L C R, Side: L R, LFE\r\nSampling rate                            : 48.0 KHz\r\nFrame rate                               : 31.250 fps (1536 spf)\r\nCompression mode                         : Lossy\r\nDelay relative to video                  : 960ms\r\nStream size                              : 216 MiB (3%)\r\nLanguage                                 : English\r\nDefault                                  : Yes\r\nForced                                   : Yes\r\n\r\nMenu\r\n00:00:00.000                             : ja:00:00:00.000\r\n00:04:48.038                             : ja:00:04:48.038\r\n00:07:13.266                             : ja:00:07:13.266\r\n00:18:32.611                             : ja:00:18:32.611\r\n00:25:13.512                             : ja:00:25:13.512\r\n00:33:53.657                             : ja:00:33:53.657\r\n00:39:11.599                             : ja:00:39:11.599\r\n00:48:46.173                             : ja:00:48:46.173\r\n00:55:28.825                             : ja:00:55:28.825\r\n00:59:35.906                             : ja:00:59:35.906\r\n01:04:36.664                             : ja:01:04:36.664\r\n01:13:56.432                             : ja:01:13:56.432\r\n\r\n\r\n[b]Enjoy, be a fan and seed![/b]","torrent":{"xt":"urn:btih:51f6783c927aa2bd9b270068a8659c36dc95725d","amp;dn":"Pokemon+-+Movie+18+-+Hoopa+And+The+Clash+Of+Ages+1080p-BD+%28DUB%29","amp;tr":["udp%3A%2F%2Ftracker.leechers-paradise.org%3A6969","udp%3A%2F%2Fzer0day.ch%3A1337","udp%3A%2F%2Fopen.demonii.com%3A1337","udp%3A%2F%2Ftracker.coppersurfer.tk%3A6969","udp%3A%2F%2Fexodus.desync.com%3A6969"],"infoHash":"51f6783c927aa2bd9b270068a8659c36dc95725d","infoHashBuffer":{"type":"Buffer","data":[81,246,120,60,146,122,162,189,155,39,0,104,168,101,156,54,220,149,114,93]},"announce":[],"urlList":[]}}